<?xml version="1.0" encoding="UTF-8"?>
<svg xmlns="http://www.w3.org/2000/svg" width="2000" height="2000" xmlns:xlink="http://www.w3.org/1999/xlink" viewBox="0 0 2000 2000">
  <defs>
    <clipPath id="uuid-cf1fc7dd-6662-4462-8e8a-ff151842659f">
      <path d="m1689.7224,1535.6386s130.2105-178.7435,80.2078-377.5374c-23.4561-93.2538-61.2681-265.1559-429.1075-265.1559-162.4974,0-167.2074-428.5839-579.84062-428.5839-616.72328,0-674.03258,883.0639-340.22019,1071.2772h1268.96051Z" style="fill: none; stroke-width: 0px;"/>
    </clipPath>
  </defs>
  <g id="uuid-3899c7ea-eaaa-4af7-a11a-73a9909f76ad" data-name="Layer 2">
    <rect width="2000" height="2000" style="fill: #fff; stroke-width: 0px;"/>
  </g>
  <g id="uuid-e06a08f6-bdef-4839-ae40-6ed599927555" data-name="Layer 1">
    <g>
      <g style="clip-path: url(#uuid-cf1fc7dd-6662-4462-8e8a-ff151842659f);">
        <rect x="218.63689" y="464.3614" width="1562.72621" height="1117.4428" style="fill: #f6f6f6; stroke-width: 0px;"/>
        <path d="m169.8107,1148.2411s360.23869-345.4011,1742.4532,111.588v275.8095H169.8107v-387.3975Z" style="fill: #ededed; stroke-width: 0px;"/>
        <circle cx="1330.51547" cy="1209.96847" r="179.98424" transform="translate(-465.87795 1295.20808) rotate(-45)" style="fill: #fff; stroke-width: 0px;"/>
        <path d="m848.77028,1368.7325s575.29362-237.9301,1775.59772,166.9061H848.77028v-166.9061Z" style="fill: #c6c6c6; stroke-width: 0px;"/>
        <path d="m1160.5625,742.2786c-40.4175,0-81.8155-.998-124.0499-2.997-91.93892-4.3511-188.01772-13.4279-285.56882-26.978-166.1027-23.0721-280.45089-51.5243-281.58639-51.809-2.4697-.6188-3.97-3.123-3.3507-5.5927.61931-2.4692,3.1245-3.9714,5.5927-3.3506,1.13161.2836,115.09761,28.6358,280.74209,51.6374,152.8042,21.2198,382.09142,42.0953,606.64782,21.0437,2.5262-.2366,4.7823,1.6253,5.0204,4.16.2371,2.5352-1.6248,4.7828-4.16,5.0204-63.0004,5.9059-129.6866,8.8658-199.2872,8.8658Z" style="fill: #c6c6c6; stroke-width: 0px;"/>
        <g>
          <path d="m868.44518,812.3953v271.1561c0,62.0207-50.4628,112.4834-112.4834,112.4834h-53.206v289.8394c0,28.8694-23.39978,52.2692-52.2692,52.2692s-52.2693-23.3998-52.2693-52.2692v-510.7501h-59.336c-62.0206,0-112.4834-50.4628-112.4834-112.4834v-50.2454c0-28.8694,23.3999-52.2693,52.2692-52.2693s52.2693,23.3999,52.2693,52.2693v50.2454c0,4.3739,3.56261,7.9449,7.9449,7.9449h59.336v-179.3881c0-28.8693,23.4-52.2692,52.2693-52.2692s52.2692,23.3999,52.2692,52.2692v400.2989h53.206c4.3823,0,7.9449-3.5627,7.9449-7.945v-271.1561c0-28.8694,23.3999-52.2693,52.2692-52.2693,28.861,0,52.2693,23.3999,52.2693,52.2693Z" style="fill: #9d9d9c; stroke-width: 0px;"/>
          <path d="m666.98,856.8838h0c-4.44822,0-8.05412-3.606-8.05412-8.0542v-75.9389c0-4.4482,3.6059-8.0541,8.05412-8.0541h0c4.44818,0,8.05408,3.6059,8.05408,8.0541v75.9389c0,4.4482-3.6059,8.0542-8.05408,8.0542Z" style="fill: #878787; stroke-width: 0px;"/>
          <path d="m639.366,1117.684h0c-4.44812,0-8.05412-3.6059-8.05412-8.0541v-75.9389c0-4.4482,3.606-8.0541,8.05412-8.0541h0c4.44818,0,8.05418,3.6059,8.05418,8.0541v75.9389c0,4.4482-3.606,8.0541-8.05418,8.0541Z" style="fill: #878787; stroke-width: 0px;"/>
          <rect x="801.21538" y="933.5897" width="16.1083" height="92.0472" rx="8.0541" ry="8.0541" style="fill: #878787; stroke-width: 0px;"/>
          <path d="m499.761,902.9073h0c-4.44821,0-8.05411-3.6059-8.05411-8.0541v-75.9389c0-4.4482,3.6059-8.0541,8.05411-8.0541h0c4.44819,0,8.05409,3.6059,8.05409,8.0541v75.9389c0,4.4482-3.6059,8.0541-8.05409,8.0541Z" style="fill: #878787; stroke-width: 0px;"/>
          <path d="m561.62049,941.6467v33.4774h-16.1073v-33.4774c0-4.4492,3.6045-8.0537,8.0537-8.0537,2.2245,0,4.24011.9033,5.6952,2.3584,1.4552,1.4552,2.3584,3.4707,2.3584,5.6953Z" style="fill: #878787; stroke-width: 0px;"/>
        </g>
        <path d="m193.4854,1368.7325s619.01588-237.9301,1910.5431,166.9061H193.4854v-166.9061Z" style="fill: #878787; stroke-width: 0px;"/>
      </g>
      <g>
        <path d="m1709.9933,911.8989v133.6052c0,32.3807-23.4147,59.4014-54.2036,65.0119-3.0853.5601-6.2443.9089-9.4622,1.0219-.8008.0295-1.6065.0442-2.4122.0442h-31.2507v247.3183c0,16.9592-13.7462,30.7054-30.7054,30.7054s-30.7054-13.7462-30.7054-30.7054v-186.9392h-34.8567c-36.4388,0-66.078-29.6393-66.078-66.078v-85.3905c0-16.9542,13.7462-30.7053,30.7054-30.7053,16.9542,0,30.7054,13.7511,30.7054,30.7053v85.3905c0,2.5743,2.0928,4.6672,4.6672,4.6672h34.8567v-218.4798c0-16.9592,13.7462-30.7054,30.7054-30.7054s30.7054,13.7462,30.7054,30.7054v158.1007h31.2507c2.5743,0,4.6672-2.0928,4.6672-4.6672v-133.6052c0-16.9592,13.7511-30.7054,30.7054-30.7054,16.9591,0,30.7054,13.7462,30.7054,30.7054Z" style="fill: #c6c6c6; stroke-width: 0px;"/>
        <path d="m1655.7897,1093.267v17.249c-3.0853.5601-6.2443.9089-9.4622,1.0219v-18.2709c0-2.6137,2.1224-4.7311,4.7311-4.7311,1.3068,0,2.4908.5306,3.3456,1.3854.8549.8548,1.3855,2.0388,1.3855,3.3457Z" style="fill: #b2b2b2; stroke-width: 0px;"/>
        <rect x="1580.156" y="900.1823" width="9.4627" height="54.0727" rx="4.7313" ry="4.7313" style="fill: #b2b2b2; stroke-width: 0px;"/>
        <path d="m1580.1562,1075.2443h0c-2.6131,0-4.7314-2.1183-4.7314-4.7314v-44.61c0-2.6131,2.1183-4.7314,4.7314-4.7314h0c2.6131,0,4.7314,2.1183,4.7314,4.7314v44.61c0,2.6131-2.1183,4.7314-4.7314,4.7314Z" style="fill: #b2b2b2; stroke-width: 0px;"/>
        <path d="m1684.4713,989.4023h0c-2.6131,0-4.7314-2.1183-4.7314-4.7313v-44.6101c0-2.613,2.1183-4.7313,4.7314-4.7313h0c2.613,0,4.7313,2.1183,4.7313,4.7313v44.6101c0,2.613-2.1183,4.7313-4.7313,4.7313Z" style="fill: #b2b2b2; stroke-width: 0px;"/>
        <path d="m1474.161,1094.1683h0c-2.6131,0-4.7314-2.1183-4.7314-4.7314v-44.61c0-2.6131,2.1183-4.7314,4.7314-4.7314h0c2.6131,0,4.7314,2.1183,4.7314,4.7314v44.61c0,2.6131-2.1183,4.7314-4.7314,4.7314Z" style="fill: #b2b2b2; stroke-width: 0px;"/>
      </g>
      <path d="m1173.99,828.2621c-9.8818,0-19.8646-.0395-30.0035-.1191-2.5462-.02-4.5942-2.1005-4.5742-4.6462.02-2.5337,2.08-4.5742,4.6092-4.5742h.037c139.9256,1.105,251.9417-5.092,342.4293-18.9291,127.8818-19.555,205.2331-53.9636,229.906-102.2694,20.605-40.3415,21.0922-86.1651,1.3016-122.5787-14.7381-27.1206-47.1657-60.9839-117.9449-68.2959-2.5322-.2617-4.3731-2.5268-4.112-5.0595.2611-2.5337,2.5412-4.3726,5.0595-4.112,30.5067,3.1515,57.0065,11.5206,78.763,24.8755,20.0607,12.313,35.6502,28.5263,46.3363,48.1888,21.2423,39.0874,20.7971,88.125-1.1915,131.1758-42.8367,83.868-228.0461,126.344-550.6158,126.344Z" style="fill: #c6c6c6; stroke-width: 0px;"/>
      <path d="m1062.3081,826.5673c-.048,0-.0961-.0005-.1441-.002-51.6559-1.5843-85.01852-3.7488-85.34972-3.7708-2.5402-.1661-4.4651-2.3607-4.2986-4.9014.1666-2.5407,2.3687-4.4657,4.9014-4.2991.3297.0215,33.54822,2.1766,85.02902,3.7548,2.5453.0781,4.5452,2.2046,4.4672,4.7493-.077,2.4972-2.125,4.4692-4.6052,4.4692Z" style="fill: #c6c6c6; stroke-width: 0px;"/>
      <path d="m1161.7361,742.2156c-161.7106,0-313.74302-15.9612-425.8081-32.031-2.52022-.3617-4.27052-2.6978-3.90942-5.218.3617-2.5207,2.7003-4.2681,5.2181-3.9094,156.7046,22.4718,391.77562,44.7336,621.75262,23.1752,2.5262-.2366,4.7823,1.6253,5.0204,4.16.2371,2.5347-1.6248,4.7828-4.16,5.0204-66.286,6.2135-132.9872,8.8028-198.1136,8.8028Z" style="fill: #c6c6c6; stroke-width: 0px;"/>
      <path d="m921.01008,1315.2217s-28.19-59.0256,0-78.9468c0,0-5.638,39.1045,12.6854,78.9468,0,0-3.5237-67.8795,25.3709-91.8587,0,0,3.5238,57.1812-16.2092,91.8587,0,0,23.9615-85.5872,54.2656-103.2949,0,0-16.2092,84.8494-40.1706,103.2949,0,0,64.83682-43.5314,63.42732-62.7147,0,0,5.638,28.775-49.33242,65.2971,0,0,45.10392-16.9699,74.70332-46.4827,0,0-24.2616,41.6869-53.35853,51.6475,0,0-28.3922,11.8051-71.3818-7.7472Z" style="fill: #878787; stroke-width: 0px;"/>
      <path d="m361.29619,1340.906s-28.1899-59.0257,0-78.9468c0,0-5.638,39.1045,12.6854,78.9468,0,0-3.5237-67.8795,25.371-91.8587,0,0,3.5237,57.1811-16.2092,91.8587,0,0,23.9614-85.5872,54.2655-103.2949,0,0-16.2092,84.8494-40.1706,103.2949,0,0,64.8368-43.5314,63.4273-62.7148,0,0,5.638,28.7751-49.3323,65.2972,0,0,45.1038-16.9699,74.7032-46.4827,0,0-24.2616,41.6869-53.35849,51.6474,0,0-28.39221,11.8052-71.38181-7.7471Z" style="fill: #878787; stroke-width: 0px;"/>
      <path d="m1354.7367,1311.1073s-25.7388-31.3521-11.7246-47.5329c0,0,2.413,24.3816,19.3623,45.6489,0,0-12.2025-40.346,1.6334-59.0748,0,0,10.6137,33.9047,3.8828,57.7142,0,0,1.7161-55.0895,17.332-70.2516,0,0,2.8418,53.494-8.8456,68.1583,0,0,32.5724-35.8387,28.8748-47.1794,0,0,7.668,16.4877-20.0049,46.641,0,0,24.6362-16.9158,38.0746-39.081,0,0-8.4166,28.7023-24.4562,39.0207,0,0-15.3414,11.3243-44.1286,5.9366Z" style="fill: #c6c6c6; stroke-width: 0px;"/>
      <path d="m948.19728,653.6626s42.2849.2033,55.44012-12.0124c13.1553-12.2156-31.00892-6.9841-55.44012,12.0124Z" style="fill: #878787; stroke-width: 0px;"/>
      <path d="m1521.3657,746.9767s42.2849.2032,55.4402-12.0124c13.1553-12.2156-31.0089-6.9841-55.4402,12.0124Z" style="fill: #c6c6c6; stroke-width: 0px;"/>
      <path d="m1330.5155,925.987s34.2052,24.8607,52.0181,22.628c17.8128-2.2327-21.092-23.7795-52.0181-22.628Z" style="fill: #c6c6c6; stroke-width: 0px;"/>
      <path d="m1521.3657,497.5771s-70.0112-29.9929-100.404-18.9525,46.5479,33.3347,100.404,18.9525Z" style="fill: #878787; stroke-width: 0px;"/>
    </g>
  </g>
</svg>