<?xml version="1.0" encoding="UTF-8"?>
<svg xmlns="http://www.w3.org/2000/svg" width="4000" height="4000" viewBox="0 0 4000 4000">
  <g id="uuid-5ae3ce87-e06b-4dd1-999c-660b59b6775b" data-name="Background">
    <rect width="4000" height="4000" style="fill: #f1f2f4; stroke-width: 0px;"/>
  </g>
  <g id="uuid-1e35261c-a7f8-488c-8cbb-386e60b0fed8" data-name="Object">
    <g>
      <circle cx="1392.85712" cy="1595.2382" r="273.80951" style="fill: #90979f; stroke-width: 0px;"/>
      <path d="m3333.5701,988.1H666.43c-91.67,0-166.43,74.76-166.43,166.42011v1690.95989c0,45.95,18.57,87.38,48.81,117.62,30.24,30.23,71.67,48.8,117.62,48.8h2667.1401c91.6699,0,166.4299-74.7599,166.4299-166.42v-1690.95989c0-91.66011-74.76-166.42011-166.4299-166.42011ZM595.24,2845.48v-1690.95989c0-39.28,31.9-71.19,71.19-71.19h2667.1401c39.2899,0,71.1899,31.91,71.1899,71.19v1690.95989c0,17.13-5.9399,32.6-16.1699,44.74l-1012.4001-1212.8399c-10-11.6701-28.09-11.6701-38.09,0l-728.58,872.62-306.43-306.43c-9.52-9.5201-25.23-9.5201-34.76,0l-652.14,652.1399c-12.86-12.85-20.95-30.4699-20.95-50.23Z" style="fill: #90979f; stroke-width: 0px;"/>
    </g>
  </g>
</svg>